<?xml version="1.0" encoding="UTF-8"?>
<svg id="Layer_1" data-name="Layer 1" xmlns="http://www.w3.org/2000/svg" viewBox="0 0 792 253.33">
  <defs>
    <style>
      .cls-1 {
        fill: #4d4d4d;
      }

      .cls-2 {
        fill: red;
      }
    </style>
  </defs>
  <g>
    <g>
      <path class="cls-1" d="M49.38,215.2h-3.05c-1.29,0-2.52,0-3.87.06v-3.93h18.11v3.93c-1.41-.06-2.46-.06-3.75-.06h-3.22v30.12c0,3.05,0,5.16.06,7.62h-4.34c.06-2.46.06-4.51.06-7.62v-30.12Z"/>
      <path class="cls-1" d="M67.96,252.95c-1-8.32-4.04-32.53-5.33-41.61h4.63l2.4,21.68c.64,5.74,1.29,11.6,1.76,16h1.58c.53-4.4,1.17-10.26,1.88-16.06l2.52-21.63h4.4c-1.29,9.08-4.45,33.29-5.45,41.61h-8.38Z"/>
      <path class="cls-1" d="M99.49,215.2h-3.05c-1.29,0-2.52,0-3.87.06v-3.93h18.11v3.93c-1.41-.06-2.46-.06-3.75-.06h-3.22v30.12c0,3.05,0,5.16.06,7.62h-4.34c.06-2.46.06-4.51.06-7.62v-30.12Z"/>
      <path class="cls-1" d="M124.28,211.34c1,8.32,4.04,32.53,5.33,41.61h-4.63l-1-8.85h-8.09l-1.06,8.85h-4.4c1.29-9.08,4.45-33.29,5.45-41.61h8.38ZM116.31,240.29h7.27l-1-9.02c-.64-5.74-1.29-11.6-1.76-16h-1.58c-.53,4.39-1.17,10.26-1.88,16.06l-1.06,8.97Z"/>
      <path class="cls-1" d="M133.84,245.33v-26.26c0-3.11,0-5.1-.06-7.74h8.5l2.87,18.93c1,6.62,1.93,13.83,2.64,18.75h.35c.7-4.86,1.7-12.07,2.7-18.7l2.87-18.99h8.03c-.06,2.7-.06,4.69-.06,7.91v26.02c0,3.11.06,5.04.06,7.68h-4.34c.06-4.63.06-10.72.06-15.41,0-5.04.18-16.23.29-22.27h-.94c-.82,6.09-2.05,14.24-3.16,21.8l-2.4,15.88h-6.51l-2.58-15.88c-1.23-7.56-2.4-15.76-3.28-21.8h-1.06c.06,5.45.23,14.77.23,22.86,0,4.1,0,10.14.06,14.83h-4.34c.06-2.46.06-4.51.06-7.62Z"/>
      <path class="cls-1" d="M167.77,219.19c0-3.22,0-5.57-.06-7.85h4.34c-.06,2.29-.06,4.69-.06,7.91v26.08c0,3.05,0,5.16.06,7.62h-4.34c.06-2.46.06-4.51.06-7.62v-26.14ZM172.16,202.6v4.81h-4.28v-4.81h4.28Z"/>
      <path class="cls-1" d="M178.08,219.19c0-3.22,0-5.63-.06-7.85h8.44c6.21,0,8.61,2.4,8.61,9.85v4.98c0,4.92-1.41,8.03-4.92,9.2.7,2.29,1.52,4.86,2.23,7.56.94,3.4,1.99,6.92,2.87,10.02h-4.86c-.59-2.75-1.29-5.68-2.05-8.56l-2.23-8.32h-3.81v9.26c0,3.05,0,5.22.06,7.62h-4.34c.06-2.4.06-4.51.06-7.62v-26.14ZM182.3,215.2v17h3.87c3.16,0,4.51-1.29,4.51-6.04v-4.98c0-4.69-1.35-5.98-4.51-5.98h-3.87Z"/>
      <path class="cls-1" d="M199.71,219.19c0-3.22,0-5.57-.06-7.85h4.34c-.06,2.29-.06,4.69-.06,7.91v26.08c0,3.05,0,5.16.06,7.62h-4.34c.06-2.46.06-4.51.06-7.62v-26.14ZM204.1,202.6v4.81h-4.28v-4.81h4.28Z"/>
    </g>
    <g>
      <path class="cls-1" d="M328.61,214.85h-3.05c-1.29,0-2.52,0-3.87.06v-3.93h18.11v3.93c-1.41-.06-2.46-.06-3.75-.06h-3.22v30.12c0,3.05,0,5.16.06,7.62h-4.34c.06-2.46.06-4.51.06-7.62v-30.12Z"/>
      <path class="cls-1" d="M347.19,252.6c-1-8.32-4.04-32.53-5.33-41.61h4.63l2.4,21.68c.64,5.74,1.29,11.6,1.76,16h1.58c.53-4.4,1.17-10.26,1.88-16.06l2.52-21.63h4.4c-1.29,9.08-4.45,33.29-5.45,41.61h-8.38Z"/>
      <path class="cls-1" d="M372.28,243.98v-4.45l4.04-.12v4.57c0,4.22,1.29,5.45,4.1,5.45s4.04-1.23,4.04-5.45v-1.52c0-4.69-.7-6.04-5.27-9.08-5.04-3.28-6.62-5.63-6.62-12.31v-1.41c0-6.91,2.34-9.38,7.91-9.38s7.44,2.46,7.44,9.38v4.22l-4.04.18v-4.4c0-4.22-1-5.51-3.57-5.51-2.4,0-3.46,1.29-3.46,5.51v1.35c0,4.4.76,5.8,5.1,8.79,5.51,3.75,6.74,6.04,6.74,12.6v1.58c0,6.97-2.46,9.32-8.38,9.32s-8.03-2.34-8.03-9.32Z"/>
      <path class="cls-1" d="M393.14,218.84c0-3.22,0-5.63-.06-7.85h13.42v3.93c-1.99-.06-4.45-.06-6.39-.06h-2.75v14.48h8.38v3.93c-2.75-.06-4.4-.06-6.39-.06h-1.99v15.53h2.05c3.11,0,5.68,0,7.62-.06v3.93h-13.95c.06-2.4.06-4.51.06-7.62v-26.14Z"/>
      <path class="cls-1" d="M411.37,218.84c0-3.22,0-5.63-.06-7.85h8.44c6.21,0,8.62,2.4,8.62,9.85v4.98c0,4.92-1.41,8.03-4.92,9.2.7,2.29,1.52,4.86,2.23,7.56.94,3.4,1.99,6.92,2.87,10.02h-4.86c-.59-2.75-1.29-5.68-2.05-8.56l-2.23-8.32h-3.81v9.26c0,3.05,0,5.22.06,7.62h-4.34c.06-2.4.06-4.51.06-7.62v-26.14ZM415.59,214.85v17h3.87c3.17,0,4.51-1.29,4.51-6.04v-4.98c0-4.69-1.35-5.98-4.51-5.98h-3.87Z"/>
      <path class="cls-1" d="M436.22,252.6c-1-8.32-4.04-32.53-5.33-41.61h4.63l2.4,21.68c.64,5.74,1.29,11.6,1.76,16h1.58c.53-4.4,1.17-10.26,1.88-16.06l2.52-21.63h4.4c-1.29,9.08-4.45,33.29-5.45,41.61h-8.38Z"/>
      <path class="cls-1" d="M454.27,218.84c0-3.22,0-5.57-.06-7.85h4.34c-.06,2.29-.06,4.69-.06,7.91v26.08c0,3.05,0,5.16.06,7.62h-4.34c.06-2.46.06-4.51.06-7.62v-26.14ZM458.66,202.25v4.81h-4.28v-4.81h4.28Z"/>
      <path class="cls-1" d="M462.94,243.98v-4.45l4.04-.12v4.57c0,4.22,1.29,5.45,4.1,5.45s4.04-1.23,4.04-5.45v-1.52c0-4.69-.7-6.04-5.27-9.08-5.04-3.28-6.62-5.63-6.62-12.31v-1.41c0-6.91,2.34-9.38,7.91-9.38s7.44,2.46,7.44,9.38v4.22l-4.04.18v-4.4c0-4.22-1-5.51-3.57-5.51-2.4,0-3.46,1.29-3.46,5.51v1.35c0,4.4.76,5.8,5.1,8.79,5.51,3.75,6.74,6.04,6.74,12.6v1.58c0,6.97-2.46,9.32-8.38,9.32s-8.03-2.34-8.03-9.32Z"/>
      <path class="cls-1" d="M483.8,218.84c0-3.22,0-5.57-.06-7.85h4.34c-.06,2.29-.06,4.69-.06,7.91v26.08c0,3.05,0,5.16.06,7.62h-4.34c.06-2.46.06-4.51.06-7.62v-26.14ZM488.2,202.25v4.81h-4.28v-4.81h4.28Z"/>
    </g>
    <g>
      <path class="cls-1" d="M598.26,218.75v6.56c0,4.63.06,9.9.06,18.4,0,7.62-2.58,9.61-8.44,9.61s-8.44-1.99-8.44-9.61c0-8.44.06-13.77.06-18.4v-6.56c0-3.28,0-6.04-.06-7.8h4.34c-.06,1.99-.06,4.57-.06,7.74v25.02c0,4.34,1.29,5.63,4.16,5.63s4.16-1.29,4.16-5.63v-24.97c0-3.17,0-5.74-.06-7.8h4.34c-.06,1.76-.06,4.57-.06,7.8Z"/>
      <path class="cls-1" d="M609.11,238.44c-2.17-8.5-5.22-19.93-7.38-27.49h5.1l2.23,10.96c.76,3.75,1.52,7.5,2.23,11.13.64-3.63,1.47-7.44,2.29-11.19l2.58-10.9h4.69c-2.17,7.56-5.27,19.11-7.44,27.6v5.86c0,2.99,0,5.45.06,8.15h-4.39c.06-2.64.06-5.16.06-8.15v-5.98Z"/>
      <path class="cls-1" d="M624.7,218.75c0-3.17,0-5.57-.06-7.8h8.09c6.56,0,8.85,2.4,8.85,9.79v21.92c0,7.5-2.29,9.9-8.85,9.9h-8.09c.06-2.4.06-4.51.06-7.62v-26.2ZM628.91,214.82v33.87h3.81c3.17,0,4.45-1.35,4.45-6.04v-21.86c0-4.69-1.29-5.98-4.45-5.98h-3.81Z"/>
      <path class="cls-1" d="M663.08,218.75v6.56c0,4.63.06,9.9.06,18.4,0,7.62-2.58,9.61-8.44,9.61s-8.44-1.99-8.44-9.61c0-8.44.06-13.77.06-18.4v-6.56c0-3.28,0-6.04-.06-7.8h4.34c-.06,1.99-.06,4.57-.06,7.74v25.02c0,4.34,1.29,5.63,4.16,5.63s4.16-1.29,4.16-5.63v-24.97c0-3.17,0-5.74-.06-7.8h4.34c-.06,1.76-.06,4.57-.06,7.8Z"/>
      <path class="cls-1" d="M675.86,243.95v-4.45l4.04-.12v4.57c0,4.22,1.29,5.45,4.1,5.45s4.04-1.23,4.04-5.45v-1.52c0-4.69-.7-6.04-5.27-9.08-5.04-3.28-6.62-5.63-6.62-12.31v-1.41c0-6.91,2.34-9.38,7.91-9.38s7.44,2.46,7.44,9.38v4.22l-4.04.18v-4.4c0-4.22-1-5.51-3.57-5.51-2.4,0-3.46,1.29-3.46,5.51v1.35c0,4.4.76,5.8,5.1,8.79,5.51,3.75,6.74,6.04,6.74,12.6v1.58c0,6.97-2.46,9.32-8.38,9.32s-8.03-2.34-8.03-9.32Z"/>
      <path class="cls-1" d="M696.72,218.81c0-3.22,0-5.63-.06-7.85h13.42v3.93c-1.99-.06-4.45-.06-6.39-.06h-2.75v14.48h8.38v3.93c-2.75-.06-4.4-.06-6.39-.06h-1.99v15.53h2.05c3.11,0,5.68,0,7.62-.06v3.93h-13.95c.06-2.4.06-4.51.06-7.62v-26.14Z"/>
      <path class="cls-1" d="M714.95,218.81c0-3.22,0-5.63-.06-7.85h8.44c6.21,0,8.62,2.4,8.62,9.85v4.98c0,4.92-1.41,8.03-4.92,9.2.7,2.29,1.52,4.86,2.23,7.56.94,3.4,1.99,6.92,2.87,10.02h-4.86c-.59-2.75-1.29-5.68-2.05-8.56l-2.23-8.32h-3.81v9.26c0,3.05,0,5.22.06,7.62h-4.34c.06-2.4.06-4.51.06-7.62v-26.14ZM719.17,214.82v17h3.87c3.17,0,4.51-1.29,4.51-6.04v-4.98c0-4.69-1.35-5.98-4.51-5.98h-3.87Z"/>
      <path class="cls-1" d="M739.8,252.57c-1-8.32-4.04-32.53-5.33-41.61h4.63l2.4,21.68c.64,5.74,1.29,11.6,1.76,16h1.58c.53-4.4,1.17-10.26,1.88-16.06l2.52-21.63h4.4c-1.29,9.08-4.45,33.29-5.45,41.61h-8.38Z"/>
      <path class="cls-1" d="M757.85,218.81c0-3.22,0-5.57-.06-7.85h4.34c-.06,2.29-.06,4.69-.06,7.91v26.08c0,3.05,0,5.16.06,7.62h-4.34c.06-2.46.06-4.51.06-7.62v-26.14ZM762.25,202.22v4.81h-4.28v-4.81h4.28Z"/>
      <path class="cls-1" d="M766.52,243.95v-4.45l4.04-.12v4.57c0,4.22,1.29,5.45,4.1,5.45s4.04-1.23,4.04-5.45v-1.52c0-4.69-.7-6.04-5.28-9.08-5.04-3.28-6.62-5.63-6.62-12.31v-1.41c0-6.91,2.34-9.38,7.91-9.38s7.44,2.46,7.44,9.38v4.22l-4.04.18v-4.4c0-4.22-1-5.51-3.57-5.51-2.4,0-3.46,1.29-3.46,5.51v1.35c0,4.4.76,5.8,5.1,8.79,5.51,3.75,6.74,6.04,6.74,12.6v1.58c0,6.97-2.46,9.32-8.38,9.32s-8.03-2.34-8.03-9.32Z"/>
      <path class="cls-1" d="M787.39,218.81c0-3.22,0-5.57-.06-7.85h4.34c-.06,2.29-.06,4.69-.06,7.91v26.08c0,3.05,0,5.16.06,7.62h-4.34c.06-2.46.06-4.51.06-7.62v-26.14ZM791.78,202.22v4.81h-4.28v-4.81h4.28Z"/>
    </g>
    <circle class="cls-1" cx="264.12" cy="227.78" r="5.86"/>
    <circle class="cls-1" cx="545.78" cy="227.78" r="5.86"/>
  </g>
  <path class="cls-2" d="M124.71,52.73c13.18-15.4,26.36-30.79,39.54-46.19,3.12-3.65-2.16-8.98-5.3-5.3-13.18,15.4-26.36,30.79-39.54,46.19-3.12,3.65,2.16,8.98,5.3,5.3h0Z"/>
  <path class="cls-2" d="M123.22,47.42c-13.18-15.4-26.36-30.79-39.54-46.19-3.14-3.67-8.43,1.65-5.3,5.3,13.18,15.4,26.36,30.79,39.54,46.19,3.14,3.67,8.43-1.65,5.3-5.3h0Z"/>
  <g>
    <path d="M87.86,95.79v19.21c0,13.56.15,25.83.15,49.08,0,21.47-6.99,26.96-22.81,26.96s-22.96-5.49-22.96-26.96c0-23.25.15-35.52.15-49.08v-19.37c0-8.72,0-16.47-.15-21.15h13.08c-.15,5.33-.15,12.59-.15,20.99v68.78c0,10.66,3.04,14.05,10.04,14.05s9.88-3.39,9.88-14.05v-68.45c0-8.72,0-15.82-.15-21.31h13.08c-.15,4.68-.15,12.43-.15,21.31Z"/>
    <path d="M98.05,164.89v-11.79l12.62-.48v12.27c0,10.49,3.04,13.72,9.88,13.72s9.73-3.23,9.73-13.72v-4.2c0-11.95-1.52-15.5-13.84-23.89-13.23-9.04-17.49-15.66-17.49-34.07v-3.87c0-19.21,6.23-26.32,21.59-26.32s20.68,7.1,20.68,26.32v11.14l-12.47.32v-11.46c0-10.49-2.28-14.05-8.51-14.05s-8.36,3.55-8.36,14.05v3.55c0,11.3,1.82,14.85,13.38,22.93,14.44,10.33,17.79,16.95,17.79,35.2v4.36c0,19.37-6.54,26.16-22.81,26.16s-22.2-6.78-22.2-26.16Z"/>
    <path d="M166.32,87.07h-17.49v-12.59h47.89v12.59h-17.49v81.21c0,8.4,0,14.37.15,20.83h-13.23c.15-6.46.15-12.43.15-20.99v-81.05Z"/>
    <path class="cls-2" d="M264.39,87.07h-17.49v-12.59h47.89v12.59h-17.49v81.21c0,8.4,0,14.37.15,20.83h-13.23c.15-6.46.15-12.43.15-20.99v-81.05Z"/>
    <path class="cls-2" d="M313.35,189.11c-2.43-23.09-9.88-88.8-13.23-114.63h13.99l5.93,60.22c1.52,14.85,2.89,29.87,3.95,41.65h3.95c1.06-11.79,2.58-26.96,3.95-41.81l5.93-60.06h13.38c-3.19,25.83-10.64,91.54-13.08,114.63h-24.78Z"/>
    <path d="M234.14,74.48c2.43,23.09,9.88,88.8,13.23,114.63h-13.99l-5.93-60.22c-1.52-14.85-2.89-29.87-3.95-41.65h-3.95c-1.06,11.79-2.58,26.96-3.95,41.81l-5.93,60.06h-13.38c3.19-25.83,10.64-91.54,13.08-114.63h24.78Z"/>
    <path d="M441.83,74.48c2.43,23.09,9.88,88.8,13.23,114.63h-13.99l-5.93-60.22c-1.52-14.85-2.89-29.87-3.95-41.65h-3.95c-1.06,11.79-2.58,26.96-3.95,41.81l-5.93,60.06h-13.38c3.19-25.83,10.64-91.54,13.08-114.63h24.78Z"/>
    <path d="M374.02,87.07h-17.49v-12.59h47.89v12.59h-17.49v81.21c0,8.4,0,14.37.15,20.83h-13.23c.15-6.46.15-12.43.15-20.99v-81.05Z"/>
    <path d="M465.55,168.12v-72.49c0-8.56,0-13.56-.15-21.15h25.24l6.39,49.89c2.28,18.08,4.56,37.78,6.23,51.82h1.22c1.67-13.89,3.95-33.42,6.39-51.5l6.69-50.21h23.87c-.15,7.59-.15,12.75-.15,21.63v71.84c0,8.56,0,13.72.15,21.15h-13.23c.15-12.43.15-27.61.15-40.2,0-13.24.46-44.08.76-61.51h-2.28c-2.13,16.79-5.02,39.23-7.6,59.58l-5.63,42.14h-19.31l-6.08-42.3c-2.89-20.34-5.78-42.78-7.91-59.41h-2.58c.15,15.82.61,41.98.61,63.13,0,10.98,0,25.99.15,38.59h-13.08c.15-6.46.15-12.43.15-20.99Z"/>
    <path d="M584.3,95.95c0-8.88,0-15.34-.15-21.47h23.11c16.88,0,23.26,7.1,23.26,27.45v14.21c0,12.92-3.5,21.63-12.47,25.19,1.98,6.14,3.8,13.24,5.78,20.67,2.28,9.04,4.87,18.57,6.99,27.12h-14.6c-1.52-7.43-3.04-15.01-4.87-22.6l-5.32-22.44h-8.97v24.22c0,8.4,0,14.53.15,20.83h-13.08c.15-6.3.15-12.43.15-20.99v-72.17ZM597.08,86.91v44.72h9.27c7.45,0,10.79-3.55,10.79-15.34v-14.37c0-11.62-3.34-15.01-10.79-15.01h-9.27Z"/>
    <path d="M639.65,163.11v-61.03c0-22.28,6.39-29.54,23.57-29.54s23.11,7.26,23.11,29.54v14.21l-12.62.32v-16.14c0-11.62-3.19-15.18-10.34-15.18s-10.49,3.55-10.49,15.18v62.64c0,11.62,3.5,15.18,10.49,15.18s10.49-3.55,10.49-15.18v-16.14l12.47.32v15.82c0,20.67-5.32,27.93-23.11,27.93s-23.57-7.26-23.57-27.93Z"/>
    <path d="M722.67,164.89v-11.79l12.62-.48v12.27c0,10.49,3.04,13.72,9.88,13.72s9.73-3.23,9.73-13.72v-4.2c0-11.95-1.52-15.5-13.84-23.89-13.23-9.04-17.49-15.66-17.49-34.07v-3.87c0-19.21,6.23-26.32,21.59-26.32s20.68,7.1,20.68,26.32v11.14l-12.47.32v-11.46c0-10.49-2.28-14.05-8.51-14.05s-8.36,3.55-8.36,14.05v3.55c0,11.3,1.82,14.85,13.38,22.93,14.44,10.33,17.79,16.95,17.79,35.2v4.36c0,19.37-6.54,26.16-22.81,26.16s-22.2-6.78-22.2-26.16Z"/>
    <g>
      <path class="cls-2" d="M569.15,80.81c.02-2.18.06-4.26.11-6.33h-13.08c.11,4.7.14,9.4.15,15.18l12.82-8.85Z"/>
      <path d="M569.1,96.11c0-3.63,0-6.86.01-9.84l-12.78,9.3v72.54c0,8.56,0,14.53-.15,20.99h13.08c-.15-6.46-.15-12.43-.15-20.83v-72.17Z"/>
    </g>
    <g>
      <path class="cls-2" d="M711.61,80.81c.02-2.18.06-4.26.11-6.33h-13.08c.11,4.7.14,9.4.15,15.18l12.82-8.85Z"/>
      <path d="M711.57,96.11c0-3.63,0-6.86.01-9.84l-12.78,9.3v72.54c0,8.56,0,14.53-.15,20.99h13.08c-.15-6.46-.15-12.43-.15-20.83v-72.17Z"/>
    </g>
    <g>
      <path class="cls-2" d="M791.89,80.81c.02-2.18.06-4.26.11-6.33h-13.08c.11,4.7.14,9.4.15,15.18l12.82-8.85Z"/>
      <path d="M791.85,96.11c0-3.63,0-6.86.01-9.84l-12.78,9.3v72.54c0,8.56,0,14.53-.15,20.99h13.08c-.15-6.46-.15-12.43-.15-20.83v-72.17Z"/>
    </g>
  </g>
  <path class="cls-2" d="M16.42,200.65V59.55c0-2.05,1.66-3.71,3.71-3.71h229.77L5.81,44.05c-3.4-.16-6.14,2.75-5.77,6.13l16.38,150.46Z"/>
  <circle class="cls-2" cx="121.18" cy="49.98" r="4.88"/>
</svg>